# xmcd
#
# Track frame offsets:
#	150
#	14780
#	25433
#	39021
#	50064
#	60726
#	71980
#	82987
#	93269
#	104043
#
# Disc length: 1564 seconds
#
# Revision: 1
# Processed by: cddbd v1.5.2PL0 Copyright (c) Steve Scherf et al.
# Submitted via: audiograbber 1.83.01
#
DISCID=89061a0a
DTITLE=George Jones - Where Grass Won't Grow
DYEAR=1969
DGENRE=Country
TTITLE0=Where Grass Won't Grow
TTITLE1=For Better Or For Worse
TTITLE2=If Not For You
TTITLE3=Until I Remember You're Gone
TTITLE4=Barbara Joy
TTITLE5=No Blues Is Good News
TTITLE6=Same Old Boat
TTITLE7=Old Blue Tomorrow
TTITLE8=Shoulder To Shoulder
TTITLE9=She's Mine
EXTD=
EXTT0=
EXTT1=
EXTT2=
EXTT3=
EXTT4=
EXTT5=
EXTT6=
EXTT7=
EXTT8=
EXTT9=
PLAYORDER=
